<svg xmlns="http://www.w3.org/2000/svg" viewBox="0 0 38.33 24"><g id="Capa_2" data-name="Capa 2"><g id="Capa_1-2" data-name="Capa 1"><g id="LOGOS"><path id="Path" d="M38.33,22.18A2,2,0,0,1,36.26,24H2.07A2,2,0,0,1,0,22.18V1.82A2,2,0,0,1,2.07,0H36.26a2,2,0,0,1,2.07,1.82Z" style="fill:#f3ce11"/><path id="Shape" d="M5.69,7.81a2,2,0,0,0-1,.23,1.47,1.47,0,0,0-.6.61,1.93,1.93,0,0,0-.2.88,2.11,2.11,0,0,0,.11.68,1.64,1.64,0,0,0,.32.54,1.51,1.51,0,0,0,.56.36,2.38,2.38,0,0,0,.79.13A3.05,3.05,0,0,0,6.89,11l.1.41a2.84,2.84,0,0,1-1.35.26,2.87,2.87,0,0,1-1-.16,1.9,1.9,0,0,1-.73-.44,2,2,0,0,1-.44-.68,2.42,2.42,0,0,1-.15-.88,2.13,2.13,0,0,1,.16-.86A1.86,1.86,0,0,1,3.94,8a2.13,2.13,0,0,1,.75-.44,3.11,3.11,0,0,1,1-.16,2.87,2.87,0,0,1,1.4.31l-.23.39a2.59,2.59,0,0,0-1.17-.28ZM12,9.53a2.25,2.25,0,0,1-.16.87,1.73,1.73,0,0,1-.45.67,2,2,0,0,1-.74.44,3.13,3.13,0,0,1-1,.16A2.78,2.78,0,0,1,8.4,11.4a1.82,1.82,0,0,1-.8-.75,2.24,2.24,0,0,1-.27-1.12A2,2,0,0,1,8,8a2.46,2.46,0,0,1,1.73-.57A2.36,2.36,0,0,1,11.39,8,2.06,2.06,0,0,1,12,9.54ZM8,9.53a1.73,1.73,0,0,0,.44,1.25,1.72,1.72,0,0,0,1.29.46A1.71,1.71,0,0,0,11,10.79a1.73,1.73,0,0,0,.43-1.25A1.78,1.78,0,0,0,11,8.27a1.71,1.71,0,0,0-1.28-.45,1.75,1.75,0,0,0-1.29.45A1.71,1.71,0,0,0,8,9.54Zm8.89,0a1.84,1.84,0,0,1-.68,1.54,3.08,3.08,0,0,1-1.91.53H12.79V7.46h1.37a4.72,4.72,0,0,1,1.11.12,2.52,2.52,0,0,1,.85.37,1.65,1.65,0,0,1,.55.65,2.12,2.12,0,0,1,.19.93Zm-.62,0a1.47,1.47,0,0,0-.53-1.26,2.62,2.62,0,0,0-1.56-.39h-.77v3.3h.87a2.33,2.33,0,0,0,1.48-.41,1.49,1.49,0,0,0,.51-1.23Zm1.5,2.06V7.46h3.18v.43H18.3V9.25h2.12v.42H18.3v1.51h2.61v.43H17.73Zm8.31,0h-.71L22.55,8.34l-.18-.19q0,.58,0,1v2.4h-.59V7.46h.7l2.79,3.26.18.19c0-.6,0-.94,0-1V7.46H26V11.6h0Zm.92-.68a4.29,4.29,0,0,0,1.65.32c.72,0,1.09-.28,1.09-.83a.62.62,0,0,0-.17-.44,1.16,1.16,0,0,0-.63-.26l-1-.21c-.75-.16-1.12-.49-1.12-1a1,1,0,0,1,.48-.88,2.64,2.64,0,0,1,1.34-.29,4.44,4.44,0,0,1,.84.08,2.35,2.35,0,0,1,.65.22L29.94,8a2.78,2.78,0,0,0-.59-.18,3.74,3.74,0,0,0-.75-.08c-.81,0-1.21.23-1.21.7a.44.44,0,0,0,.19.38,1.28,1.28,0,0,0,.56.22l.94.19a2,2,0,0,1,.91.39.93.93,0,0,1,.31.75,1.07,1.07,0,0,1-.46.95,2.22,2.22,0,0,1-1.26.32,4.83,4.83,0,0,1-1.06-.1,3.27,3.27,0,0,1-.73-.24l.17-.4Zm7.44.68-.58-1.31h-2l-.6,1.31h-.59l1.9-4.15h.59L35,11.6Zm-.76-1.72c-.47-1.14-.73-1.79-.78-1.93l-.81,1.93Z" style="fill:#010101"/><polygon id="Path-2" points="25.48 14.7 25.06 14.7 24.78 15.19 24.99 15.19 25.48 14.7" style="fill:#09569f"/><polygon id="Path-3" points="12.31 16.23 13.15 16.23 13.15 16 12.31 16 12.31 15.53 13.19 15.53 13.2 15.3 12.02 15.3 12.02 17 13.21 17 13.22 16.77 12.31 16.77 12.31 16.23" style="fill:#09569f"/><path id="Path-4" d="M8.37,15.58a.7.7,0,0,1,.37-.09,1,1,0,0,1,.45.11h0l.12-.19h0a1,1,0,0,0-.57-.14,1.25,1.25,0,0,0-.4.06.87.87,0,0,0-.31.18.77.77,0,0,0-.19.28,1,1,0,0,0-.07.35,1,1,0,0,0,.06.36.75.75,0,0,0,.48.46,1.31,1.31,0,0,0,.41.06,1.22,1.22,0,0,0,.55-.11h0l0-.23h0a1,1,0,0,1-.46.11.94.94,0,0,1-.3-.05.54.54,0,0,1-.21-.13.82.82,0,0,1-.12-.2.71.71,0,0,1,0-.26.89.89,0,0,1,.07-.34.51.51,0,0,1,.23-.23Z" style="fill:#09569f"/><path id="Shape-2" d="M15.24,15.5a.93.93,0,0,0-.35-.15,2,2,0,0,0-.45,0h-.57V17h.61a1.23,1.23,0,0,0,.78-.22.76.76,0,0,0,.28-.64.92.92,0,0,0-.08-.38.67.67,0,0,0-.23-.27Zm-1.07,0h.28a1,1,0,0,1,.6.15.57.57,0,0,1,.2.48.55.55,0,0,1-.19.46.92.92,0,0,1-.57.16h-.31V15.53h0Z" style="fill:#09569f"/><polygon id="Path-5" points="13.2 14.7 12.77 14.7 12.49 15.19 12.71 15.19 13.2 14.7" style="fill:#09569f"/><path id="Shape-3" d="M11,16.28,11,16.19h0a.48.48,0,0,0,.25-.15.43.43,0,0,0,.1-.29.34.34,0,0,0,0-.15.34.34,0,0,0-.06-.12.76.76,0,0,0-.09-.09L11,15.33a.57.57,0,0,0-.15,0l-.17,0H9.86V17h.29v-.77h.53s.07.11.13.23l.28.53h.33l-.34-.62a.43.43,0,0,0-.06-.09Zm0-.54a.23.23,0,0,1-.09.2.64.64,0,0,1-.33.06h-.45v-.5h.49a.56.56,0,0,1,.3.06A.19.19,0,0,1,11,15.74Z" style="fill:#09569f"/><rect id="Rectangle" x="28.35" y="15.3" width="0.29" height="1.7" style="fill:#09569f"/><path id="Shape-4" d="M24.78,15.29,24,17h.3l.24-.52h.74l.23.52h.3l-.76-1.71Zm.4,1h-.54l.27-.65c0,.11.13.33.26.65Z" style="fill:#09569f"/><path id="Path-6" d="M26.81,15.58a.7.7,0,0,1,.37-.09,1,1,0,0,1,.45.11h0l.12-.19h0a1,1,0,0,0-.57-.14,1.25,1.25,0,0,0-.4.06.87.87,0,0,0-.31.18.77.77,0,0,0-.19.28,1,1,0,0,0-.07.35,1.09,1.09,0,0,0,.06.36.75.75,0,0,0,.48.46,1.31,1.31,0,0,0,.41.06,1.22,1.22,0,0,0,.55-.11h0l-.05-.23h0a1,1,0,0,1-.46.11.94.94,0,0,1-.3-.05.54.54,0,0,1-.21-.13.82.82,0,0,1-.12-.2.8.8,0,0,1,0-.6.51.51,0,0,1,.23-.23Z" style="fill:#09569f"/><polygon id="Path-7" points="29.7 16.77 29.7 15.3 29.4 15.3 29.4 17 30.55 17 30.56 16.77 29.7 16.77" style="fill:#09569f"/><rect id="Rectangle-2" x="16.22" y="15.3" width="0.29" height="1.7" style="fill:#09569f"/><polygon id="Path-8" points="22.57 17 22.86 17 22.86 16.26 23.67 16.26 23.67 16.04 22.86 16.04 22.86 15.53 23.71 15.53 23.72 15.3 22.57 15.3 22.57 17" style="fill:#09569f"/><polygon id="Path-9" points="17.05 15.53 17.65 15.53 17.65 17 17.94 17 17.94 15.53 18.55 15.53 18.55 15.3 17.05 15.3 17.05 15.53" style="fill:#09569f"/><path id="Shape-5" d="M19.93,15.27a1,1,0,0,0-.71.24.83.83,0,0,0-.25.64,1,1,0,0,0,.11.46.77.77,0,0,0,.33.31,1.17,1.17,0,0,0,.52.11,1.31,1.31,0,0,0,.41-.06.75.75,0,0,0,.48-.46,1,1,0,0,0,.06-.35.87.87,0,0,0-.25-.64,1,1,0,0,0-.7-.24Zm0,.23a.68.68,0,0,1,.49.17.66.66,0,0,1,.16.48.73.73,0,0,1-.16.48.79.79,0,0,1-1,0,.76.76,0,0,1,0-1A.68.68,0,0,1,19.93,15.5Z" style="fill:#09569f"/><rect id="Rectangle-3" x="2.55" y="13.17" width="33.22" height="0.3" style="fill:#010101"/></g></g></g></svg>