<svg id="Capa_1" data-name="Capa 1" xmlns="http://www.w3.org/2000/svg" xmlns:xlink="http://www.w3.org/1999/xlink" viewBox="0 0 183.92 183.64"><defs><style>.cls-1{fill:url(#linear-gradient);}.cls-2{fill:url(#linear-gradient-2);}.cls-3{fill:url(#linear-gradient-3);}.cls-4{fill:url(#linear-gradient-4);}.cls-5{fill:url(#linear-gradient-5);}.cls-6{opacity:0.44;fill:url(#linear-gradient-6);}.cls-7{fill:#fff;}.cls-8{fill:none;stroke:#fff;stroke-miterlimit:10;stroke-width:2px;}</style><linearGradient id="linear-gradient" x1="91.96" y1="183.64" x2="91.96" gradientUnits="userSpaceOnUse"><stop offset="0" stop-color="#b30000"/><stop offset="1" stop-color="#f73636"/></linearGradient><linearGradient id="linear-gradient-2" x1="-80.32" y1="581.07" x2="-179.85" y2="581.07" gradientTransform="matrix(-0.84, -0.54, 0.54, -0.84, -319.3, 570.21)" gradientUnits="userSpaceOnUse"><stop offset="0" stop-color="#c4181e"/><stop offset="0.56" stop-color="#9e0000"/><stop offset="1" stop-color="#cc1d1d"/></linearGradient><linearGradient id="linear-gradient-3" x1="0.56" y1="-148.28" x2="162.17" y2="-148.28" gradientTransform="matrix(0.98, 0.18, -0.18, 0.98, -3.34, 163.37)" gradientUnits="userSpaceOnUse"><stop offset="0" stop-color="#ec1c24"/><stop offset="0.51" stop-color="#ffb8b8"/><stop offset="1" stop-color="#ec1c24"/></linearGradient><linearGradient id="linear-gradient-4" x1="81.19" y1="-10.03" x2="81.19" y2="-164.17" gradientTransform="translate(15.52 0.5) rotate(97.13)" xlink:href="#linear-gradient"/><linearGradient id="linear-gradient-5" x1="81.19" y1="-9.75" x2="81.19" y2="-164.45" gradientTransform="matrix(0.98, 0.18, -0.18, 0.98, -3.34, 163.37)" gradientUnits="userSpaceOnUse"><stop offset="0" stop-color="#f73636"/><stop offset="1" stop-color="#b30000"/></linearGradient><linearGradient id="linear-gradient-6" x1="81.99" y1="-112.78" x2="81.99" y2="-164.55" gradientTransform="matrix(0.98, 0.18, -0.18, 0.98, -3.34, 163.37)" gradientUnits="userSpaceOnUse"><stop offset="0" stop-color="#e31414"/><stop offset="0.13" stop-color="#e52424"/><stop offset="0.38" stop-color="#ec4d4d"/><stop offset="0.72" stop-color="#f68f8f"/><stop offset="1" stop-color="#ffc9c9"/></linearGradient></defs><title>logo-davipuntos</title><path class="cls-1" d="M176.09,54.44A90.69,90.69,0,0,0,125.54,6.18,91.3,91.3,0,0,0,7.42,58.34,111.13,111.13,0,0,0,0,93c.16,12.6,3.11,27.4,11.71,43.36,12.22,22.71,31.71,34.5,47.64,40.61,0-.1,1.51.69,1.55.58a105.48,105.48,0,0,0,17.89,4.71,88.87,88.87,0,0,0,55.83-8.06C154,164.25,168.91,147,177.7,124.31A90.73,90.73,0,0,0,176.09,54.44Z"/><path class="cls-2" d="M93.54,177.51C60,176.26,39.15,159.6,37,157.91c15,13.85,30.52,22.36,56.72,23,31.41.81,58.85-17.09,73.37-42.57C149.77,163.32,122,178.57,93.54,177.51Z"/><path class="cls-3" d="M107.18,7c35,6.25,61.23,34.66,70.33,65.9A86.87,86.87,0,0,0,18.41,44.55C37.75,18.38,72.13.76,107.18,7Z"/><circle class="cls-4" cx="91.87" cy="91.87" r="76.78" transform="translate(-4.65 178.84) rotate(-87.02)"/><path class="cls-5" d="M105.45,15.72A77.35,77.35,0,1,0,168,105.44,77.44,77.44,0,0,0,105.45,15.72Zm-27,151.74a76.78,76.78,0,1,1,89.07-62.12A76.87,76.87,0,0,1,78.4,167.46Z"/><path class="cls-6" d="M97.88,62.89c11.1,2,59.33,12.47,70.71,16.34A76.78,76.78,0,0,0,25.81,53.91C36.13,53.86,86.51,60.86,97.88,62.89Z"/><path class="cls-7" d="M39.75,53.3a37.67,37.67,0,0,1,9-1c5.89,0,10.12,1.44,13.14,4.23,4.15,3.7,6.72,10.34,6.72,20.53,0,11-2.72,17.82-6.57,21.59-3.4,3.47-8.38,5.13-15,5.13a49.31,49.31,0,0,1-7.39-.52Zm8,43.7a9.32,9.32,0,0,0,2,.15c5.58,0,10.64-4.68,10.64-20.15,0-11.55-3.24-18.19-10.26-18.19a11.28,11.28,0,0,0-2.34.22Z"/><path class="cls-7" d="M81,90.21l-2.71,13.21H70.47L81.79,52.54h9.43l10.5,50.88H93.87L91.15,90.21Zm9.29-6.34-2.11-11.7c-.68-3.32-1.36-8-1.89-11.55h-.23c-.53,3.54-1.28,8.45-1.89,11.62L81.94,83.87Z"/><path class="cls-7" d="M112.81,103.42,101.34,52.54h8.83l4.23,22.8c1,5.58,2.26,12.3,3,18.49h.22c.68-6.26,1.82-12.76,2.87-18.64l4.08-22.65h8.75l-11.7,50.88Z"/><path class="cls-7" d="M146.33,52.54v50.88h-8.08V52.54Z"/><path class="cls-7" d="M55.05,115.12a21.39,21.39,0,0,1,3.7-.35,6,6,0,0,1,4.43,1.64,5.69,5.69,0,0,1,1.29,3.8,9.67,9.67,0,0,1-2.38,6.28,7.89,7.89,0,0,1-5.58,2.37,10.17,10.17,0,0,1-1.57-.14l-1.81,9.66H50.65Zm.31,11.44a5.43,5.43,0,0,0,1.33.14c3.63,0,5.2-3.56,5.2-6.25,0-2.09-.88-3.55-3.39-3.55a5,5,0,0,0-1.32.14Z"/><path class="cls-7" d="M71.17,114.87l-3,15.77a13.12,13.12,0,0,0-.28,2.76c0,2,1.08,3,2.54,3,2.2,0,3.39-1.61,4.15-5.62l3-15.91h2.55l-3,15.7c-1.09,5.72-3.25,8.09-7,8.09-2.83,0-4.78-1.71-4.78-5a17.14,17.14,0,0,1,.35-3.21l2.93-15.6Z"/><path class="cls-7" d="M79.82,138.38l4.46-23.51h2.41l2.41,12.7c.45,2.41.87,4.61,1.15,6.73h.07c.31-2.51.63-5.26,1.15-8l2.16-11.41h2.23L91.4,138.38H89.17l-2.48-12.24a65.35,65.35,0,0,1-1.15-7.29h-.07c-.31,2.44-.77,5.41-1.29,8.2l-2.13,11.33Z"/><path class="cls-7" d="M102.22,117.21H98l.45-2.34h11l-.45,2.34h-4.22l-4,21.17H98.2Z"/><path class="cls-7" d="M112.47,138.66c-4.53,0-5-4.88-5-7.39,0-4.54,1.64-11.58,4.88-14.76a6.23,6.23,0,0,1,4.4-1.91c4.43,0,4.85,4.6,4.85,7.6,0,4.36-1.64,11.48-4.71,14.51a6.09,6.09,0,0,1-4.36,1.95Zm.35-2.23a3.12,3.12,0,0,0,2.16-1c2.76-2.79,4-10.5,4-13.15,0-2.83-.17-5.44-2.65-5.44a3.12,3.12,0,0,0-2.2,1c-2.61,2.65-4,9.74-4,13.22,0,2,.11,5.34,2.73,5.34Z"/><path class="cls-7" d="M122.21,135.42a5.73,5.73,0,0,0,3.14.87c2.82,0,4.29-2.09,4.29-4.53,0-1.85-.88-3.18-2.45-4.71-1.7-1.71-2.89-3.6-2.89-5.83a6.39,6.39,0,0,1,6.66-6.56,5.77,5.77,0,0,1,3.11.77l-.77,2.16a5.09,5.09,0,0,0-2.58-.62,3.76,3.76,0,0,0-3.84,4c0,1.68.91,3,2.48,4.47a8.22,8.22,0,0,1,2.86,5.86c0,4.25-2.58,7.32-7,7.32a6.76,6.76,0,0,1-3.74-.94Z"/><line class="cls-8" x1="38.42" y1="127.33" x2="45.27" y2="127.33"/><line class="cls-8" x1="138.16" y1="127.33" x2="145.33" y2="127.33"/></svg>