<svg xmlns="http://www.w3.org/2000/svg" viewBox="0 0 20 20"><g id="Capa_2" data-name="Capa 2"><g id="Capa_1-2" data-name="Capa 1"><circle cx="10" cy="10" r="10" style="fill:#004f78"/><path d="M17.3,10c-.13-.11-.15-.18,0-.33a2.31,2.31,0,0,0,.23-2.42,2.29,2.29,0,0,0-2-1.39c-.78,0-1.56,0-2.34,0H6.06a3.91,3.91,0,0,0-.91.11,4.18,4.18,0,0,0,.9,8.24h9.62A2.42,2.42,0,0,0,17.3,10Zm-1.67,2.83H6.11A2.81,2.81,0,0,1,4.74,7.56a2.92,2.92,0,0,1,1.42-.37h9.07a1.06,1.06,0,0,1,1.1.92,1,1,0,0,1-1,1.2H6.91a.68.68,0,0,0-.73.51.65.65,0,0,0,.69.86h8.68a1,1,0,0,1,1,.61,1.06,1.06,0,0,1-1,1.52Z" style="fill:#fff"/></g></g></svg>