<svg xmlns="http://www.w3.org/2000/svg" viewBox="0 0 246.99 229.12"><g id="Capa_2" data-name="Capa 2"><g id="Capa_1-2" data-name="Capa 1"><path d="M154.48,10.7A47.46,47.46,0,0,0,140.9,3.24,50.2,50.2,0,0,0,120.45.08c-6.26.37-12,2.26-17.75,4.65A47.5,47.5,0,0,0,85.81,17a50,50,0,0,0-8.44,13.29A52.94,52.94,0,0,0,73.28,49c.4,14.1,3.83,24.72,8.32,35q3.29,7.56,7.05,15c2.22,4.34,4.85,8.43,7.06,12.78a82.51,82.51,0,0,0,6.23,10.2c4.33,6.12,8.28,12.49,12.69,18.56,2.52,3.48,5.38,6.71,7.66,10.37.84,1.34,1.95,1.17,2.6-.09,1.08-2.1,2.86-3.62,4.14-5.54,2.66-4,5.46-7.87,8.23-11.77,4.54-6.37,8.75-12.94,12.77-19.63a226,226,0,0,0,12-22.34c4.38-9.53,8.38-19.13,10.46-29.49,2.48-12.36,1.32-24.12-4.64-35.34A51.31,51.31,0,0,0,154.48,10.7ZM123.4,79.09c-14.8.14-28.5-12.67-28.37-29,.12-15.62,13.88-28.59,28.72-28.29a28.65,28.65,0,0,1-.35,57.3Z"/><path d="M65.1,146.61V109.18c0-2.08,0-4.16,0-6.24,0-1.5-.6-2-2.07-1.65-1.63.42-3.31.64-4.91,1.12-8.48,2.56-16.93,5.26-25.44,7.75-7.07,2.07-11.58,6.81-12.86,13.78-1.94,10.6-4.67,21-6.4,31.69-1.34,8.27-3.48,16.4-5.18,24.62-2.63,12.66-5,25.39-7.85,38A12.5,12.5,0,0,0,.89,226a4.43,4.43,0,0,0,4.59,3.08,11.92,11.92,0,0,0,6-1.56c2.66-1.61,5.27-3.3,7.84-5,7-4.68,13.85-9.42,20.78-14.12,3.62-2.46,7.26-4.9,10.88-7.36s7.1-5.23,11-7.29c2.46-1.31,3.28-2.76,3.26-5.4C65.06,174.44,65.11,160.52,65.1,146.61Z"/><path d="M246.77,218.5c-1.16-7.1-3.09-14-4.42-21.11-3.18-16.95-6.92-33.8-10.32-50.71-1.44-7.13-3.37-14.14-4.49-21.34-1.22-7.82-5.76-12.75-13.37-15.29-6.3-2.1-12.76-3.61-19.07-5.66a102.52,102.52,0,0,0-10.57-3.08c-2.44-.51-2.66.3-2.65,2.32.06,14.23,0,28.47,0,42.7s0,28.63,0,42.95c0,1.42,0,2.78,1.5,3.46,3.31,1.5,5.9,4.09,9,5.85s6.14,4.27,9.33,6.24c4.14,2.56,8,5.57,12,8.3,6.21,4.2,12.5,8.26,18.68,12.49,2.9,2,5.8,3.73,9.48,3.42,2.33-.2,4-1,4.58-3.66A18.33,18.33,0,0,0,246.77,218.5Z"/><path d="M118.48,174.9a7.06,7.06,0,0,0-1.52-4.65c-6.18-7.91-12.49-15.73-18.19-24-3.62-5.25-7.2-10.53-10.6-15.92-2.77-4.39-5.65-8.7-8.07-13.31-1.27-2.42-2.42-5-4.53-7-.93,1.1-.57,2.26-.57,3.32,0,24,0,48-.06,72,0,3.27-.15,6.37,2.42,8.19h0l39.55,27.2h0a1,1,0,0,0,1.18.09c.7-.43.36-1.32.36-2C118.46,204.17,118.44,189.53,118.48,174.9Z"/><path d="M171.36,110.16c-3.66,4.42-5.6,9.65-8.73,14.16-2.77,4-5,8.36-7.74,12.38q-6.79,10-14,19.72c-2.83,3.85-6,7.44-9,11.22-1.49,1.93-3.34,3.7-3.34,6.44q0,22.56,0,45.12c0,.6-.29,1.39.48,1.71a1,1,0,0,0,1-.17v0l39.81-27.55h0a3.87,3.87,0,0,0,1.85-3.57q-.08-38.28-.05-76.56A5.81,5.81,0,0,0,171.36,110.16Z"/></g></g></svg>